<?xml version="1.0" encoding="UTF-8" standalone="no"?>
<!-- Created with Inkscape (http://www.inkscape.org/) -->

<svg
   width="1000"
   height="1000.0001"
   viewBox="0 0 264.58332 264.58335"
   version="1.1"
   id="svg1"
   xmlns="http://www.w3.org/2000/svg"
   xmlns:svg="http://www.w3.org/2000/svg">
  <defs
     id="defs1" />
  <g
     id="layer1">
    <path
       id="path317"
       style="fill:#1e3a8a;fill-opacity:1;stroke-width:0.351043"
       d="m 125.13016,60.288589 -6.52596,3.583446 -28.979085,15.911411 -6.281748,3.449942 h -5.43e-4 v 7.167433 36.315289 2.9805 0.44665 h 5.43e-4 c 1.203864,1.27494 2.600455,2.2695 4.125602,2.97996 0.516292,0.2405 1.050313,0.43832 1.590654,0.61651 0.131679,0.0428 0.26322,0.0858 0.396171,0.12482 0.543391,0.16256 1.093186,0.30582 1.653063,0.40756 0.419391,0.0762 0.84229,0.13547 1.268288,0.17801 2.966466,0.29628 6.050782,-0.20649 8.816705,-1.44901 h 5.3e-4 c 0.61718,-0.27726 1.21794,-0.59104 1.79852,-0.93995 h 5.4e-4 l 5.4e-4,0.006 0.18941,-0.12319 h 5.4e-4 c 0.20926,-0.12962 0.41536,-0.26422 0.61867,-0.40322 l 7.61626,-4.96136 h 5.3e-4 l 0.0115,-0.007 8.36246,-5.51926 10.48332,-6.9167 7.38723,-4.87508 10.49365,-6.92484 13.52244,-8.923071 h 5.4e-4 l 2.64946,-1.748578 h 5.5e-4 l 0.0141,0.02714 0.0581,-0.02767 -0.02,-0.03473 h 5.4e-4 l 2.18436,-1.441953 10e-4,0.001 1.13046,-0.742955 1.77733,-1.152152 -0.006,-0.01139 0.0428,-0.02822 4.17173,-2.740091 1.73718,2.427495 5.14588,-11.33808 -12.39201,1.212391 2.11057,2.94903 -3.55034,2.344462 -0.73319,-0.385317 -4.32314,-2.374311 -32.01277,-17.577498 -0.005,0.0043 z M 102.9929,132.06116 c -0.10885,0.0654 -0.2186,0.12969 -0.32888,0.19266 0.11028,-0.0628 0.22004,-0.1267 0.32888,-0.19212 z m -0.32888,0.19266 c -0.0551,0.0315 -0.11005,0.0625 -0.16552,0.0934 0.0555,-0.0308 0.11039,-0.062 0.16552,-0.0934 z m -13.208226,1.61073 c -0.0018,-5.3e-4 -0.0037,-6.2e-4 -0.0055,-0.001 0.113567,0.0333 0.227232,0.0657 0.341358,0.0971 -0.112325,-0.031 -0.224142,-0.0633 -0.335931,-0.0961 z m 35.650486,-66.396044 35.58265,19.537187 -12.53147,8.370056 v -9.219382 h -10.4931 v 16.227803 l -7.38778,4.93477 V 93.032372 h -10.48279 v 21.287938 l -8.36299,5.58546 v -0.0668 l -0.012,0.007 v -5.3e-4 -18.13866 h -10.22445 v 24.92077 c -0.37607,0.31203 -0.75054,0.60189 -1.12066,0.86235 l -0.528594,0.35276 c -0.02688,0.0169 -0.05398,0.0387 -0.08086,0.0554 -3.794731,2.35117 -7.204397,1.89398 -9.838604,0.62573 V 86.950338 Z m 42.65565,23.956389 -6.08203,4.012722 v 5.43e-4 25.56929 5.5e-4 2.79001 5.5e-4 2.26577 l -8.78956,5.60392 v 5.3e-4 h -5.5e-4 v 5.5e-4 7.35358 l 0.008,0.0293 v 5.5e-4 h 5.5e-4 l 8.78088,-5.59904 h 5.4e-4 l 0.0136,-0.008 h 5.4e-4 l 6.06792,-3.72346 v -5.5e-4 -5.07532 -5.4e-4 -0.72234 -5.3e-4 -1.57113 -5.3e-4 -1.63841 -5.5e-4 -1.86471 -5.5e-4 -1.57056 -5.5e-4 -5.5e-4 -1.63786 -5.5e-4 z m -19.60447,12.719245 -10.49365,6.92431 v 36.70495 l 10.49365,-6.67141 z m -17.88088,11.79993 -10.48279,6.91725 v 28.33814 l 4.84361,2.69559 0.45694,0.25453 0.45696,-0.25453 4.72528,-2.62992 z m -18.85772,12.44356 -10.22448,6.74684 v 5.2517 l 10.22448,6.52216 z" />
    <text
       xml:space="preserve"
       style="font-style:normal;font-variant:normal;font-weight:bold;font-stretch:normal;font-size:31.491px;font-family:sans-serif;-inkscape-font-specification:'sans-serif Bold';fill:#1e3a8a;fill-opacity:1;stroke-width:0.483539"
       x="38.47094"
       y="178.72055"
       id="text127-0"><tspan
         id="tspan127-7"
         style="font-style:normal;font-variant:normal;font-weight:bold;font-stretch:normal;font-size:31.491px;font-family:sans-serif;-inkscape-font-specification:'sans-serif Bold';fill:#1e3a8a;fill-opacity:1;stroke-width:0.483539"
         x="38.47094"
         y="178.72055">CYNOPHEL</tspan></text>
  </g>
</svg>
